<?xml version="1.0"?>
<svg xmlns="http://www.w3.org/2000/svg" viewBox="-24 -24 1298 188" shape-rendering="geometricPrecision" preserveAspectRatio="xMidYMid meet"><defs><mask id="mc_60" maskUnits="userSpaceOnUse" x="-60" y="-60" width="224" height="260"><rect x="-60" y="-60" width="224" height="260" fill="#000"></rect><rect x="0" y="0" width="104" height="140" rx="0" fill="#fff"></rect><rect x="24" y="52" width="16" height="148" rx="0" fill="#000"></rect><rect x="64" y="52" width="16" height="148" rx="0" fill="#000"></rect></mask><mask id="mc_61" maskUnits="userSpaceOnUse" x="-60" y="-60" width="224" height="260"><rect x="-60" y="-60" width="224" height="260" fill="#000"></rect><rect x="0" y="0" width="104" height="140" rx="0" fill="#fff"></rect><rect x="40" y="36" width="124" height="16" rx="0" fill="#000"></rect><rect x="40" y="88" width="124" height="16" rx="0" fill="#000"></rect></mask><mask id="mc_62" maskUnits="userSpaceOnUse" x="-60" y="-60" width="224" height="260"><rect x="-60" y="-60" width="224" height="260" fill="#000"></rect><rect x="0" y="0" width="104" height="140" rx="0" fill="#fff"></rect><rect x="64" y="52" width="16" height="148" rx="0" fill="#000"></rect></mask><mask id="mc_63" maskUnits="userSpaceOnUse" x="-60" y="-60" width="224" height="260"><rect x="-60" y="-60" width="224" height="260" fill="#000"></rect><rect x="0" y="0" width="104" height="140" rx="0" fill="#fff"></rect><rect x="64" y="52" width="16" height="148" rx="0" fill="#000"></rect></mask><mask id="mc_64" maskUnits="userSpaceOnUse" x="-60" y="-60" width="224" height="260"><rect x="-60" y="-60" width="224" height="260" fill="#000"></rect><rect x="0" y="0" width="104" height="140" rx="0" fill="#fff"></rect><rect x="42" y="36" width="20" height="68" rx="0" fill="#000"></rect></mask><mask id="mc_65" maskUnits="userSpaceOnUse" x="-60" y="-60" width="224" height="260"><rect x="-60" y="-60" width="224" height="260" fill="#000"></rect><rect x="0" y="0" width="104" height="140" rx="0" fill="#fff"></rect><rect x="40" y="54" width="124" height="32" rx="0" fill="#000"></rect></mask><mask id="mc_66" maskUnits="userSpaceOnUse" x="-60" y="-60" width="224" height="260"><rect x="-60" y="-60" width="224" height="260" fill="#000"></rect><rect x="0" y="0" width="104" height="140" rx="0" fill="#fff"></rect><rect x="42" y="36" width="20" height="68" rx="0" fill="#000"></rect></mask><mask id="mc_67" maskUnits="userSpaceOnUse" x="-60" y="-60" width="224" height="260"><rect x="-60" y="-60" width="224" height="260" fill="#000"></rect><rect x="0" y="0" width="104" height="140" rx="0" fill="#fff"></rect><rect x="28" y="36" width="20" height="68" rx="0" fill="#000"></rect></mask><mask id="mc_68" maskUnits="userSpaceOnUse" x="-60" y="-60" width="224" height="260"><rect x="-60" y="-60" width="224" height="260" fill="#000"></rect><rect x="0" y="0" width="104" height="140" rx="0" fill="#fff"></rect><rect x="40" y="36" width="124" height="16" rx="0" fill="#000"></rect><rect x="40" y="88" width="124" height="16" rx="0" fill="#000"></rect></mask><mask id="mc_69" maskUnits="userSpaceOnUse" x="-60" y="-60" width="224" height="260"><rect x="-60" y="-60" width="224" height="260" fill="#000"></rect><rect x="0" y="0" width="104" height="140" rx="0" fill="#fff"></rect><rect x="48" y="40" width="116" height="16" rx="0" fill="#000"></rect><rect x="-60" y="84" width="108" height="16" rx="0" fill="#000"></rect></mask></defs><g transform="translate(0 0)"><rect x="0" y="0" width="104" height="140" fill="#0b1729" mask="url(#mc_60)"></rect></g><g transform="translate(120 0)"><rect x="0" y="0" width="104" height="140" fill="#0b1729" mask="url(#mc_61)"></rect></g><g transform="translate(240 0)"><rect x="0" y="0" width="104" height="140" fill="#0b1729" mask="url(#mc_62)"></rect></g><g transform="translate(360 0)"><rect x="0" y="0" width="104" height="140" fill="#0b1729" mask="url(#mc_63)"></rect></g><g transform="translate(480 0)"><rect x="0" y="0" width="104" height="140" fill="#0b1729" mask="url(#mc_64)"></rect></g><g transform="translate(666 0)"><rect x="0" y="0" width="104" height="140" fill="#0b1729" mask="url(#mc_65)"></rect></g><g transform="translate(786 0)"><rect x="0" y="0" width="104" height="140" fill="#0b1729" mask="url(#mc_66)"></rect></g><g transform="translate(906 0)"><rect x="0" y="0" width="104" height="140" fill="#0b1729" mask="url(#mc_67)"></rect></g><g transform="translate(1026 0)"><rect x="0" y="0" width="104" height="140" fill="#0b1729" mask="url(#mc_68)"></rect></g><g transform="translate(1146 0)"><rect x="0" y="0" width="104" height="140" fill="#0b1729" mask="url(#mc_69)"></rect></g><rect x="606" y="102" width="38" height="38" rx="0" fill="#f5e90c"></rect></svg>