<?xml version="1.0"?>
<svg xmlns="http://www.w3.org/2000/svg" viewBox="-24 -24 1298 188" shape-rendering="geometricPrecision" preserveAspectRatio="xMidYMid meet"><defs><mask id="mc_50" maskUnits="userSpaceOnUse" x="-60" y="-60" width="224" height="260"><rect x="-60" y="-60" width="224" height="260" fill="#000"></rect><rect x="0" y="0" width="104" height="140" rx="0" fill="#fff"></rect><rect x="24" y="52" width="16" height="148" rx="0" fill="#000"></rect><rect x="64" y="52" width="16" height="148" rx="0" fill="#000"></rect></mask><mask id="mc_51" maskUnits="userSpaceOnUse" x="-60" y="-60" width="224" height="260"><rect x="-60" y="-60" width="224" height="260" fill="#000"></rect><rect x="0" y="0" width="104" height="140" rx="0" fill="#fff"></rect><rect x="40" y="36" width="124" height="16" rx="0" fill="#000"></rect><rect x="40" y="88" width="124" height="16" rx="0" fill="#000"></rect></mask><mask id="mc_52" maskUnits="userSpaceOnUse" x="-60" y="-60" width="224" height="260"><rect x="-60" y="-60" width="224" height="260" fill="#000"></rect><rect x="0" y="0" width="104" height="140" rx="0" fill="#fff"></rect><rect x="64" y="52" width="16" height="148" rx="0" fill="#000"></rect></mask><mask id="mc_53" maskUnits="userSpaceOnUse" x="-60" y="-60" width="224" height="260"><rect x="-60" y="-60" width="224" height="260" fill="#000"></rect><rect x="0" y="0" width="104" height="140" rx="0" fill="#fff"></rect><rect x="64" y="52" width="16" height="148" rx="0" fill="#000"></rect></mask><mask id="mc_54" maskUnits="userSpaceOnUse" x="-60" y="-60" width="224" height="260"><rect x="-60" y="-60" width="224" height="260" fill="#000"></rect><rect x="0" y="0" width="104" height="140" rx="0" fill="#fff"></rect><rect x="42" y="36" width="20" height="68" rx="0" fill="#000"></rect></mask><mask id="mc_55" maskUnits="userSpaceOnUse" x="-60" y="-60" width="224" height="260"><rect x="-60" y="-60" width="224" height="260" fill="#000"></rect><rect x="0" y="0" width="104" height="140" rx="0" fill="#fff"></rect><rect x="40" y="54" width="124" height="32" rx="0" fill="#000"></rect></mask><mask id="mc_56" maskUnits="userSpaceOnUse" x="-60" y="-60" width="224" height="260"><rect x="-60" y="-60" width="224" height="260" fill="#000"></rect><rect x="0" y="0" width="104" height="140" rx="0" fill="#fff"></rect><rect x="42" y="36" width="20" height="68" rx="0" fill="#000"></rect></mask><mask id="mc_57" maskUnits="userSpaceOnUse" x="-60" y="-60" width="224" height="260"><rect x="-60" y="-60" width="224" height="260" fill="#000"></rect><rect x="0" y="0" width="104" height="140" rx="0" fill="#fff"></rect><rect x="28" y="36" width="20" height="68" rx="0" fill="#000"></rect></mask><mask id="mc_58" maskUnits="userSpaceOnUse" x="-60" y="-60" width="224" height="260"><rect x="-60" y="-60" width="224" height="260" fill="#000"></rect><rect x="0" y="0" width="104" height="140" rx="0" fill="#fff"></rect><rect x="40" y="36" width="124" height="16" rx="0" fill="#000"></rect><rect x="40" y="88" width="124" height="16" rx="0" fill="#000"></rect></mask><mask id="mc_59" maskUnits="userSpaceOnUse" x="-60" y="-60" width="224" height="260"><rect x="-60" y="-60" width="224" height="260" fill="#000"></rect><rect x="0" y="0" width="104" height="140" rx="0" fill="#fff"></rect><rect x="48" y="40" width="116" height="16" rx="0" fill="#000"></rect><rect x="-60" y="84" width="108" height="16" rx="0" fill="#000"></rect></mask></defs><g transform="translate(0 0)"><rect x="0" y="0" width="104" height="140" fill="#ffffff" mask="url(#mc_50)"></rect></g><g transform="translate(120 0)"><rect x="0" y="0" width="104" height="140" fill="#ffffff" mask="url(#mc_51)"></rect></g><g transform="translate(240 0)"><rect x="0" y="0" width="104" height="140" fill="#ffffff" mask="url(#mc_52)"></rect></g><g transform="translate(360 0)"><rect x="0" y="0" width="104" height="140" fill="#ffffff" mask="url(#mc_53)"></rect></g><g transform="translate(480 0)"><rect x="0" y="0" width="104" height="140" fill="#ffffff" mask="url(#mc_54)"></rect></g><g transform="translate(666 0)"><rect x="0" y="0" width="104" height="140" fill="#ffffff" mask="url(#mc_55)"></rect></g><g transform="translate(786 0)"><rect x="0" y="0" width="104" height="140" fill="#ffffff" mask="url(#mc_56)"></rect></g><g transform="translate(906 0)"><rect x="0" y="0" width="104" height="140" fill="#ffffff" mask="url(#mc_57)"></rect></g><g transform="translate(1026 0)"><rect x="0" y="0" width="104" height="140" fill="#ffffff" mask="url(#mc_58)"></rect></g><g transform="translate(1146 0)"><rect x="0" y="0" width="104" height="140" fill="#ffffff" mask="url(#mc_59)"></rect></g><rect x="606" y="102" width="38" height="38" rx="0" fill="#f5e90c"></rect></svg>