<?xml version="1.0"?>
<svg xmlns="http://www.w3.org/2000/svg" viewBox="-80 -24 688 354" shape-rendering="geometricPrecision" preserveAspectRatio="xMidYMid meet"><defs><mask id="mc_40" maskUnits="userSpaceOnUse" x="-60" y="-60" width="280" height="260"><rect x="-60" y="-60" width="280" height="260" fill="#000"></rect><rect x="0" y="0" width="160" height="140" rx="0" fill="#fff"></rect><rect x="41" y="52" width="16" height="148" rx="0" fill="#000"></rect><rect x="103" y="52" width="16" height="148" rx="0" fill="#000"></rect></mask><mask id="mc_41" maskUnits="userSpaceOnUse" x="-60" y="-60" width="224" height="260"><rect x="-60" y="-60" width="224" height="260" fill="#000"></rect><rect x="0" y="0" width="104" height="140" rx="0" fill="#fff"></rect><rect x="40" y="36" width="124" height="16" rx="0" fill="#000"></rect><rect x="40" y="88" width="124" height="16" rx="0" fill="#000"></rect></mask><mask id="mc_42" maskUnits="userSpaceOnUse" x="-60" y="-60" width="224" height="260"><rect x="-60" y="-60" width="224" height="260" fill="#000"></rect><rect x="0" y="0" width="104" height="140" rx="0" fill="#fff"></rect><rect x="64" y="52" width="16" height="148" rx="0" fill="#000"></rect></mask><mask id="mc_43" maskUnits="userSpaceOnUse" x="-60" y="-60" width="224" height="260"><rect x="-60" y="-60" width="224" height="260" fill="#000"></rect><rect x="0" y="0" width="104" height="140" rx="0" fill="#fff"></rect><rect x="64" y="52" width="16" height="148" rx="0" fill="#000"></rect></mask><mask id="mc_44" maskUnits="userSpaceOnUse" x="-60" y="-60" width="224" height="260"><rect x="-60" y="-60" width="224" height="260" fill="#000"></rect><rect x="0" y="0" width="104" height="140" rx="0" fill="#fff"></rect><rect x="42" y="36" width="20" height="68" rx="0" fill="#000"></rect></mask><mask id="mc_45" maskUnits="userSpaceOnUse" x="-60" y="-60" width="224" height="260"><rect x="-60" y="-60" width="224" height="260" fill="#000"></rect><rect x="0" y="0" width="104" height="140" rx="0" fill="#fff"></rect><rect x="40" y="54" width="124" height="32" rx="0" fill="#000"></rect></mask><mask id="mc_46" maskUnits="userSpaceOnUse" x="-60" y="-60" width="224" height="260"><rect x="-60" y="-60" width="224" height="260" fill="#000"></rect><rect x="0" y="0" width="104" height="140" rx="0" fill="#fff"></rect><rect x="42" y="36" width="20" height="68" rx="0" fill="#000"></rect></mask><mask id="mc_47" maskUnits="userSpaceOnUse" x="-60" y="-60" width="224" height="260"><rect x="-60" y="-60" width="224" height="260" fill="#000"></rect><rect x="0" y="0" width="104" height="140" rx="0" fill="#fff"></rect><rect x="28" y="36" width="20" height="68" rx="0" fill="#000"></rect></mask><mask id="mc_48" maskUnits="userSpaceOnUse" x="-60" y="-60" width="224" height="260"><rect x="-60" y="-60" width="224" height="260" fill="#000"></rect><rect x="0" y="0" width="104" height="140" rx="0" fill="#fff"></rect><rect x="40" y="36" width="124" height="16" rx="0" fill="#000"></rect><rect x="40" y="88" width="124" height="16" rx="0" fill="#000"></rect></mask><mask id="mc_49" maskUnits="userSpaceOnUse" x="-60" y="-60" width="224" height="260"><rect x="-60" y="-60" width="224" height="260" fill="#000"></rect><rect x="0" y="0" width="104" height="140" rx="0" fill="#fff"></rect><rect x="48" y="40" width="116" height="16" rx="0" fill="#000"></rect><rect x="-60" y="84" width="108" height="16" rx="0" fill="#000"></rect></mask></defs><g transform="translate(-56 0)"><rect x="0" y="0" width="160" height="140" fill="#0b1729" mask="url(#mc_40)"></rect></g><g transform="translate(120 0)"><rect x="0" y="0" width="104" height="140" fill="#0b1729" mask="url(#mc_41)"></rect></g><g transform="translate(240 0)"><rect x="0" y="0" width="104" height="140" fill="#0b1729" mask="url(#mc_42)"></rect></g><g transform="translate(360 0)"><rect x="0" y="0" width="104" height="140" fill="#0b1729" mask="url(#mc_43)"></rect></g><g transform="translate(480 0)"><rect x="0" y="0" width="104" height="140" fill="#0b1729" mask="url(#mc_44)"></rect></g><g transform="translate(0 166)"><rect x="0" y="0" width="104" height="140" fill="#0b1729" mask="url(#mc_45)"></rect></g><g transform="translate(120 166)"><rect x="0" y="0" width="104" height="140" fill="#0b1729" mask="url(#mc_46)"></rect></g><g transform="translate(240 166)"><rect x="0" y="0" width="104" height="140" fill="#0b1729" mask="url(#mc_47)"></rect></g><g transform="translate(360 166)"><rect x="0" y="0" width="104" height="140" fill="#0b1729" mask="url(#mc_48)"></rect></g><g transform="translate(480 166)"><rect x="0" y="0" width="104" height="140" fill="#0b1729" mask="url(#mc_49)"></rect></g><rect x="-56" y="266" width="40" height="40" rx="0" fill="#0b1729"></rect></svg>